<mxfile host="65bd71144e">
    <diagram id="3sNPvsNa5LfeU7EaP85X" name="第 1 页">
        <mxGraphModel dx="770" dy="1147" grid="1" gridSize="10" guides="1" tooltips="1" connect="1" arrows="1" fold="1" page="1" pageScale="1" pageWidth="827" pageHeight="1169" math="0" shadow="0">
            <root>
                <mxCell id="0"/>
                <mxCell id="1" parent="0"/>
                <mxCell id="2" value="&lt;font style=&quot;font-size: 16px;&quot;&gt;0&lt;/font&gt;" style="text;html=1;align=center;verticalAlign=middle;resizable=0;points=[];autosize=1;strokeColor=none;fillColor=none;fontColor=#3399FF;" vertex="1" parent="1">
                    <mxGeometry x="135" y="235" width="30" height="30" as="geometry"/>
                </mxCell>
                <mxCell id="3" value="&lt;font style=&quot;font-size: 16px;&quot;&gt;1&lt;/font&gt;" style="text;html=1;align=center;verticalAlign=middle;resizable=0;points=[];autosize=1;strokeColor=none;fillColor=none;fontColor=#3399FF;" vertex="1" parent="1">
                    <mxGeometry x="165" y="235" width="30" height="30" as="geometry"/>
                </mxCell>
                <mxCell id="6" value="&lt;font style=&quot;font-size: 16px;&quot;&gt;2&lt;/font&gt;" style="text;html=1;align=center;verticalAlign=middle;resizable=0;points=[];autosize=1;strokeColor=none;fillColor=none;fontColor=#3399FF;" vertex="1" parent="1">
                    <mxGeometry x="195" y="235" width="30" height="30" as="geometry"/>
                </mxCell>
                <mxCell id="7" value="&lt;font style=&quot;font-size: 16px;&quot;&gt;3&lt;/font&gt;" style="text;html=1;align=center;verticalAlign=middle;resizable=0;points=[];autosize=1;strokeColor=none;fillColor=none;fontColor=#3399FF;" vertex="1" parent="1">
                    <mxGeometry x="225" y="235" width="30" height="30" as="geometry"/>
                </mxCell>
                <mxCell id="8" value="&lt;font style=&quot;font-size: 16px;&quot;&gt;4&lt;/font&gt;" style="text;html=1;align=center;verticalAlign=middle;resizable=0;points=[];autosize=1;strokeColor=none;fillColor=none;fontColor=#3399FF;" vertex="1" parent="1">
                    <mxGeometry x="255" y="235" width="30" height="30" as="geometry"/>
                </mxCell>
                <mxCell id="9" value="&lt;font style=&quot;font-size: 16px;&quot;&gt;5&lt;/font&gt;" style="text;html=1;align=center;verticalAlign=middle;resizable=0;points=[];autosize=1;strokeColor=none;fillColor=none;fontColor=#3399FF;" vertex="1" parent="1">
                    <mxGeometry x="285" y="235" width="30" height="30" as="geometry"/>
                </mxCell>
                <mxCell id="10" value="&lt;font style=&quot;font-size: 16px;&quot;&gt;6&lt;/font&gt;" style="text;html=1;align=center;verticalAlign=middle;resizable=0;points=[];autosize=1;strokeColor=none;fillColor=none;fontColor=#3399FF;" vertex="1" parent="1">
                    <mxGeometry x="315" y="235" width="30" height="30" as="geometry"/>
                </mxCell>
                <mxCell id="11" value="&lt;font style=&quot;font-size: 16px;&quot;&gt;7&lt;/font&gt;" style="text;html=1;align=center;verticalAlign=middle;resizable=0;points=[];autosize=1;strokeColor=none;fillColor=none;fontColor=#3399FF;" vertex="1" parent="1">
                    <mxGeometry x="345" y="235" width="30" height="30" as="geometry"/>
                </mxCell>
                <mxCell id="12" value="&lt;font style=&quot;font-size: 16px;&quot;&gt;Tx:&amp;nbsp; &lt;span style=&quot;white-space: pre;&quot;&gt;&#9;&lt;/span&gt; 0&lt;span style=&quot;white-space: pre;&quot;&gt;&#9;&lt;/span&gt;1&lt;span style=&quot;white-space: pre;&quot;&gt;&#9;&lt;/span&gt;2&lt;span style=&quot;white-space: pre;&quot;&gt;&#9;&lt;/span&gt;3&lt;span style=&quot;white-space: pre;&quot;&gt;&#9;&lt;/span&gt;5&lt;/font&gt;" style="text;html=1;align=center;verticalAlign=middle;resizable=0;points=[];autosize=1;strokeColor=none;fillColor=none;fontColor=#3399FF;" vertex="1" parent="1">
                    <mxGeometry x="130" y="290" width="210" height="30" as="geometry"/>
                </mxCell>
                <mxCell id="13" value="&lt;font style=&quot;font-size: 16px;&quot;&gt;Rx:&amp;nbsp; &lt;span style=&quot;white-space: pre;&quot;&gt;&#9;&lt;/span&gt;&amp;nbsp;5&lt;span style=&quot;white-space: pre;&quot;&gt;&#9;&lt;/span&gt;6&lt;span style=&quot;white-space: pre;&quot;&gt;&#9;&lt;/span&gt;7&lt;span style=&quot;white-space: pre;&quot;&gt;&#9;&lt;/span&gt;0&lt;span style=&quot;white-space: pre;&quot;&gt;&#9;&lt;/span&gt;1&lt;/font&gt;" style="text;html=1;align=center;verticalAlign=middle;resizable=0;points=[];autosize=1;strokeColor=none;fillColor=none;fontColor=#3399FF;" vertex="1" parent="1">
                    <mxGeometry x="130" y="340" width="210" height="30" as="geometry"/>
                </mxCell>
            </root>
        </mxGraphModel>
    </diagram>
</mxfile>